<?xml version="1.0" encoding="utf-8"?>
<!-- Generator: Adobe Illustrator 24.0.2, SVG Export Plug-In . SVG Version: 6.00 Build 0)  -->
<svg version="1.1" id="Layer_1" xmlns="http://www.w3.org/2000/svg" xmlns:xlink="http://www.w3.org/1999/xlink" x="0px" y="0px"
	 viewBox="0 0 252.03 238.7" style="enable-background:new 0 0 252.03 238.7;" xml:space="preserve">
<style type="text/css">
	.st0{clip-path:url(#SVGID_2_);}
	.st1{clip-path:url(#SVGID_4_);}
</style>
<g>
	<defs>
		<rect id="SVGID_1_" width="252.03" height="238.7"/>
	</defs>
	<clipPath id="SVGID_2_">
		<use xlink:href="#SVGID_1_"  style="overflow:visible;"/>
	</clipPath>
	<path class="st0" d="M177.65,159.71c1.21,0,1.88,0.84,1.88,2.38c0,1.44-0.69,2.3-1.88,2.3c-1.19,0-1.87-0.86-1.87-2.35
		C175.79,160.57,176.46,159.71,177.65,159.71 M177.65,157.84c-2.48,0-4.23,1.75-4.23,4.2c0,2.48,1.75,4.21,4.23,4.21
		c2.46,0,4.25-1.73,4.25-4.15C181.9,159.57,180.18,157.84,177.65,157.84 M172.23,158.15h-1.44v-2.53h-2.35v2.53h-1.12v1.65h1.12
		v3.63c0,1.24,0.1,1.67,0.46,2.07c0.35,0.38,0.86,0.53,1.88,0.53h1.44v-1.77h-0.84c-0.54,0-0.6-0.1-0.6-1.35v-3.1h1.44V158.15z
		 M166.09,160.45c-0.2-1.68-1.45-2.61-3.5-2.61c-2.12,0-3.4,0.97-3.4,2.58c0,1.27,0.68,1.92,2.43,2.3l1.45,0.33
		c0.63,0.15,0.89,0.36,0.89,0.73c0,0.46-0.5,0.78-1.22,0.78c-0.94,0-1.44-0.36-1.57-1.11h-2.2c0.13,1.77,1.5,2.81,3.72,2.81
		c2.21,0,3.58-1.06,3.58-2.74c0-0.64-0.21-1.24-0.6-1.6c-0.35-0.36-0.84-0.58-1.82-0.78l-1.47-0.31c-0.74-0.16-0.98-0.31-0.98-0.61
		c0-0.4,0.45-0.66,1.12-0.66c0.78,0,1.26,0.31,1.35,0.91H166.09z M157.23,155.02h-2.35v1.93h2.35V155.02z M157.23,158.06h-2.35v7.98
		h2.35V158.06z M149.07,159.74c1.07,0,1.72,0.89,1.72,2.33c0,1.39-0.68,2.28-1.7,2.28c-1.06,0-1.72-0.89-1.72-2.31
		C147.37,160.63,148.03,159.74,149.07,159.74 M145.11,158.06v10.51h2.35v-3.17c0.66,0.61,1.27,0.86,2.15,0.86
		c2.1,0,3.5-1.68,3.5-4.23c0-2.48-1.42-4.18-3.52-4.18c-0.99,0-1.57,0.3-2.25,1.16l0.07-0.94H145.11z M139.28,159.71
		c1.21,0,1.88,0.84,1.88,2.38c0,1.44-0.69,2.3-1.88,2.3c-1.19,0-1.87-0.86-1.87-2.35C137.41,160.57,138.09,159.71,139.28,159.71
		 M139.28,157.84c-2.48,0-4.23,1.75-4.23,4.2c0,2.48,1.75,4.21,4.23,4.21c2.46,0,4.25-1.73,4.25-4.15
		C143.52,159.57,141.8,157.84,139.28,157.84 M133.46,155.02h-2.35v1.93h2.35V155.02z M133.46,158.06h-2.35v7.98h2.35V158.06z
		 M128.89,155.02h-2.35v11.02h2.35V155.02z M122.79,158.06l-1.04,3.6c-0.18,0.71-0.31,1.25-0.41,1.78l-0.1-0.31
		c-0.18-0.66-0.18-0.68-0.41-1.42l-1.17-3.65h-2.51l2.63,6.71c0.28,0.69,0.3,0.74,0.3,1.02c0,0.69-0.38,1.01-1.21,1.01h-0.69v1.77
		h1.37c1.78,0,2.16-0.33,2.91-2.46l2.78-8.05H122.79z M116,160.9h-5.39v2.11H116V160.9z M104.74,159.71c1.21,0,1.88,0.84,1.88,2.38
		c0,1.44-0.69,2.3-1.88,2.3c-1.19,0-1.87-0.86-1.87-2.35C102.88,160.57,103.55,159.71,104.74,159.71 M104.74,157.84
		c-2.48,0-4.23,1.75-4.23,4.2c0,2.48,1.75,4.21,4.23,4.21c2.46,0,4.24-1.73,4.24-4.15C108.99,159.57,107.27,157.84,104.74,157.84
		 M99.47,158.15h-1.44v-2.53h-2.35v2.53h-1.12v1.65h1.12v3.63c0,1.24,0.1,1.67,0.46,2.07c0.35,0.38,0.86,0.53,1.88,0.53h1.44v-1.77
		h-0.84c-0.55,0-0.59-0.1-0.59-1.35v-3.1h1.44V158.15z M93.11,155.02h-2.35v11.02h2.35V155.02z M86.49,163.46
		c-0.38,0.68-0.94,1.01-1.72,1.01c-0.73,0-1.19-0.31-1.19-0.84c0-0.48,0.36-0.76,1.21-0.96l0.84-0.18c0.4-0.08,0.61-0.15,0.86-0.25
		V163.46z M83.78,160.57c0.1-0.65,0.56-0.96,1.4-0.96c0.78,0,1.24,0.28,1.24,0.74c0,0.31-0.18,0.46-0.71,0.54l-1.27,0.21
		c-2.23,0.36-3.17,1.14-3.17,2.63c0,1.5,1.17,2.51,2.92,2.51c0.96,0,1.5-0.2,2.3-0.84c0.08,0.3,0.08,0.35,0.18,0.63h2.4
		c-0.26-0.4-0.3-0.51-0.3-1.37V161c0-1.19-0.22-1.82-0.79-2.33c-0.63-0.56-1.55-0.84-2.76-0.84c-2.25,0-3.39,0.89-3.54,2.74H83.78z
		 M76.63,161.79h-2.49l1.34-4.31L76.63,161.79z M77.17,163.82l0.59,2.21h2.81l-3.5-11.02h-3.09l-3.85,11.02h2.69l0.69-2.21H77.17z"
		/>
</g>
<path d="M114.49,113.43H97.36l8.56-24.74L114.49,113.43z M140.99,139.58L116.4,70.13H95.45l-24.59,69.44h17.45l4.25-12.29h26.72
	l4.25,12.29H140.99z"/>
<g>
	<defs>
		<rect id="SVGID_3_" width="252.03" height="238.7"/>
	</defs>
	<clipPath id="SVGID_4_">
		<use xlink:href="#SVGID_3_"  style="overflow:visible;"/>
	</clipPath>
	<path class="st1" d="M185.06,89.22c0-13.39-10.66-20.87-25.93-20.87c-14.77,0-26.17,7.65-26.17,21.19v2.18h15.62
		c0-6.47,4.39-9.36,10.36-9.36c5.49,0,9.38,2.93,9.38,7.41c0,3.57-2.04,5.99-6.57,8.54c-6.57,3.7-10.58,8.03-10.58,18.38v1.54h15.7
		v-0.63c0-5.55,1.57-7.67,7.35-11.49C179.46,102.64,185.06,97.97,185.06,89.22"/>
</g>
<rect x="151.15" y="123.86" width="15.72" height="15.72"/>
</svg>
