<?xml version="1.0" encoding="UTF-8" standalone="no"?>
<svg
   xmlns:dc="http://purl.org/dc/elements/1.1/"
   xmlns:cc="http://creativecommons.org/ns#"
   xmlns:rdf="http://www.w3.org/1999/02/22-rdf-syntax-ns#"
   xmlns:svg="http://www.w3.org/2000/svg"
   xmlns="http://www.w3.org/2000/svg"
   id="svg2712"
   viewBox="0 0 187.98956 36.634938"
   version="1.1"
   height="36.634937mm"
   width="187.98956mm">
  <defs
     id="defs2716" />
  <metadata
     id="metadata2518">
    <rdf:RDF>
      <cc:Work
         rdf:about="">
        <dc:format>image/svg+xml</dc:format>
        <dc:type
           rdf:resource="http://purl.org/dc/dcmitype/StillImage" />
        <dc:title></dc:title>
      </cc:Work>
    </rdf:RDF>
  </metadata>
  <g
     id="g2570"
     transform="translate(-7.2097859,-174.55682)">
    <rect
       id="rect2520"
       stroke-width="0.13518"
       fill="#5245e5"
       height="41.597"
       width="41.918999"
       y="1.9545"
       x="13.048" />
    <rect
       id="rect2522"
       stroke-width="0.13518"
       fill="#f6546b"
       height="41.597"
       width="41.918999"
       y="2.0418999"
       x="60.327" />
    <path
       id="path2524"
       stroke-width="0.26458"
       fill="#ffffff"
       d="m 83.828,79.57 -13.424,-6.7604 -13.179,7.2259 2.2812,-14.856 -10.945,-10.301 14.834,-2.4212 6.415,-13.593 6.8867,13.36 14.91,1.9008 -10.578,10.678 z"
       transform="matrix(0.85193,0,0,0.82483,21.985,-25.346)" />
    <path
       id="path2526"
       style="paint-order:stroke fill markers"
       stroke-width="1.0219"
       stroke="#ffffff"
       fill="#f6546b"
       d="M 72.68,28.416 63.3557,19.9191 75.9927,17.922 81.4579,6.71 84.6497,21.812 75.9928,17.9218 Z" />
    <g
       id="g2536"
       fill="#ffffff">
      <ellipse
         id="ellipse2528"
         style="paint-order:fill markers stroke"
         ry="1.0476"
         rx="1.1425"
         cy="5.9773002"
         cx="81.453003" />
      <ellipse
         id="ellipse2530"
         style="paint-order:fill markers stroke"
         ry="1.0476"
         rx="1.1425"
         cy="17.759001"
         cx="76.029999" />
      <ellipse
         id="ellipse2532"
         style="paint-order:fill markers stroke"
         ry="1.0476"
         rx="1.1425"
         cy="19.806"
         cx="63.091" />
      <ellipse
         id="ellipse2534"
         style="paint-order:fill markers stroke"
         ry="1.0476"
         rx="1.1425"
         cy="39.971001"
         cx="92.985001" />
    </g>
    <rect
       id="rect2538"
       stroke-width="0.13518"
       fill="#ff7600"
       height="41.597"
       width="41.918999"
       y="47.258999"
       x="12.984" />
    <path
       id="path2540"
       stroke-width="0.26458"
       fill="#ffffff"
       d="m 83.828,79.57 -13.424,-6.7604 -13.179,7.2259 2.2812,-14.856 -10.945,-10.301 14.834,-2.4212 6.415,-13.593 6.8867,13.36 14.91,1.9008 -10.578,10.678 z"
       transform="matrix(0.85193,0,0,0.82483,-25.359,19.871)" />
    <path
       id="path2542"
       style="paint-order:stroke fill markers"
       stroke-width="1.0219"
       stroke="#ffffff"
       fill="#ff7600"
       d="m 25.336,73.633 -9.3243,-8.4969 12.637,-1.9971 5.4652,-11.212 3.1918,15.102 -8.6569,-3.8902 z" />
    <g
       id="g2552"
       fill="#ffffff">
      <ellipse
         id="ellipse2544"
         style="paint-order:fill markers stroke"
         ry="1.0476"
         rx="1.1425"
         cy="51.194"
         cx="34.110001" />
      <ellipse
         id="ellipse2546"
         style="paint-order:fill markers stroke"
         ry="1.0476"
         rx="1.1425"
         cy="62.976002"
         cx="28.687" />
      <ellipse
         id="ellipse2548"
         style="paint-order:fill markers stroke"
         ry="1.0476"
         rx="1.1425"
         cy="65.023003"
         cx="15.748" />
      <ellipse
         id="ellipse2550"
         style="paint-order:fill markers stroke"
         ry="1.0476"
         rx="1.1425"
         cy="85.188004"
         cx="45.641998" />
    </g>
    <rect
       id="rect2554"
       stroke-width="0.13518"
       fill="#8200ff"
       height="41.597"
       width="41.918999"
       y="47.258999"
       x="60.327" />
    <path
       id="path2556"
       stroke-width="0.26458"
       fill="#ffffff"
       d="m 83.828,79.57 -13.424,-6.7604 -13.179,7.2259 2.2812,-14.856 -10.945,-10.301 14.834,-2.4212 6.415,-13.593 6.8867,13.36 14.91,1.9008 -10.578,10.678 z"
       transform="matrix(0.85193,0,0,0.82483,21.985,19.871)" />
    <path
       id="path2558"
       style="paint-order:stroke fill markers"
       stroke-width="1.0219"
       stroke="#ffffff"
       fill="#b57fe9"
       d="m 72.68,73.633 -9.3243,-8.4969 12.637,-1.9971 5.4652,-11.212 3.1918,15.102 -8.6569,-3.8902 z" />
    <g
       id="g2568"
       fill="#ffffff">
      <ellipse
         id="ellipse2560"
         style="paint-order:fill markers stroke"
         ry="1.0476"
         rx="1.1425"
         cy="51.194"
         cx="81.453003" />
      <ellipse
         id="ellipse2562"
         style="paint-order:fill markers stroke"
         ry="1.0476"
         rx="1.1425"
         cy="62.976002"
         cx="76.029999" />
      <ellipse
         id="ellipse2564"
         style="paint-order:fill markers stroke"
         ry="1.0476"
         rx="1.1425"
         cy="65.023003"
         cx="63.091" />
      <ellipse
         id="ellipse2566"
         style="paint-order:fill markers stroke"
         ry="1.0476"
         rx="1.1425"
         cy="85.188004"
         cx="92.985001" />
    </g>
  </g>
  <g
     id="g2646"
     transform="translate(-7.2097859,-174.55682)">
    <rect
       id="rect2572"
       style="paint-order:fill markers stroke"
       fill="#41444e"
       height="32.252998"
       width="32.252998"
       y="222.92"
       x="93.953003" />
    <rect
       id="rect2574"
       style="paint-order:fill markers stroke"
       fill="#765fff"
       ry="0"
       height="41.945999"
       width="199.62"
       y="122.8"
       x="3.3275001" />
    <g
       id="g2592"
       transform="translate(-6.445,-101.62)">
      <g
         id="g2588"
         fill="#ffffff">
        <path
           id="path2576"
           stroke-width="0.8504"
           d="m 98.256,478.21 12.4,57.148 -33.631,-14.721 -12.871,39.711 -7.5508,46.371 43.619,-22.555 44.43,21.102 -9.2656,-46.094 35.008,-33.33 -49.346,-5.9316 z"
           transform="matrix(0.26458,0,0,0.26458,6.445,101.62)" />
        <g
           id="g2586">
          <ellipse
             id="ellipse2578"
             style="paint-order:fill markers stroke"
             ry="1.0488"
             rx="1.1744"
             cy="227.41"
             cx="32.437" />
          <ellipse
             id="ellipse2580"
             style="paint-order:fill markers stroke"
             ry="1.0488"
             rx="1.1744"
             cy="239.21001"
             cx="26.863001" />
          <ellipse
             id="ellipse2582"
             style="paint-order:fill markers stroke"
             ry="1.0488"
             rx="1.1744"
             cy="241.25999"
             cx="13.563" />
          <ellipse
             id="ellipse2584"
             style="paint-order:fill markers stroke"
             ry="1.0488"
             rx="1.1744"
             cy="261.45001"
             cx="44.291" />
        </g>
      </g>
      <path
         id="path2590"
         style="paint-order:stroke fill markers"
         stroke-width="0.637"
         stroke="#ffffff"
         fill="none"
         d="m 23.419,249.88 -9.5842,-8.5074 12.99,-1.9996 5.6175,-11.225 3.2808,15.12 -8.8983,-3.895 z" />
    </g>
    <text
       id="text2596"
       xml:space="preserve"
       style="line-height:1.25"
       word-spacing="0px"
       stroke-width="0.92277"
       letter-spacing="0px"
       font-size="36.911px"
       font-family="'Open Sans Condensed'"
       fill="#ffffff"
       y="174.59741"
       x="43.990345"
       transform="scale(1.0883,0.91885)"><tspan
         id="tspan2594"
         stroke-width="0.92277"
         font-weight="bold"
         fill="#ffffff"
         y="174.59741"
         x="43.990345">Datatähti</tspan></text>
    <rect
       id="rect2598"
       style="paint-order:fill markers stroke"
       stroke-width="2.2504"
       opacity="0"
       ry="0"
       height="53.108002"
       width="199.62"
       y="176.73"
       x="5.8079" />
    <path
       transform="matrix(0.26458333,0,0,0.26458333,7.2097859,174.55682)"
       d="m 563.43164,37.064453 v 97.392577 h 19.71875 V 100.9707 c 0,-7.552551 0.91553,-13.332092 2.74414,-17.337888 1.82861,-4.047496 5.01565,-6.072265 9.5625,-6.072265 6.07889,0 9.11914,5.11287 9.11914,15.335937 v 41.560546 h 19.86719 V 88.953125 c 0,-8.38715 -1.92831,-14.729467 -5.7832,-19.027344 -3.85495,-4.339578 -9.56343,-6.509765 -17.125,-6.509765 -8.20407,0 -14.28259,3.422412 -18.23633,10.265625 h -1.03711 c 0.59306,-7.177046 0.88867,-12.163293 0.88867,-14.958985 V 37.064453 Z m 136.47852,0.501953 c -3.41012,0 -6.0784,0.814068 -8.00586,2.441406 -1.87805,1.585638 -2.81641,3.753822 -2.81641,6.507813 0,2.837417 0.98792,5.049153 2.96484,6.634766 1.97687,1.543911 4.59559,2.316406 7.85743,2.316406 3.1136,0 5.65985,-0.772495 7.63672,-2.316406 1.97691,-1.585613 2.96484,-3.797349 2.96484,-6.634766 0,-2.753991 -0.96317,-4.922175 -2.89063,-6.507813 -1.92748,-1.627338 -4.49849,-2.441406 -7.71093,-2.441406 z m -193.78321,1.001953 c -3.06416,0 -5.46164,0.70827 -7.1914,2.126953 -1.72979,1.418734 -2.59375,3.401931 -2.59375,5.947266 0,2.503635 0.86396,4.464104 2.59375,5.882813 1.72976,1.377008 4.12724,2.064453 7.1914,2.064453 3.06417,0 5.46162,-0.728994 7.19141,-2.189453 1.7792,-1.460435 2.66797,-3.379356 2.66797,-5.757813 0,-2.420157 -0.88877,-4.361831 -2.66797,-5.822266 -1.72979,-1.50216 -4.12724,-2.251953 -7.19141,-2.251953 z m 29.57813,0 c -3.11358,0 -5.53391,0.729019 -7.26367,2.189453 -1.72979,1.418709 -2.59571,3.381157 -2.59571,5.884766 0,2.420158 0.86592,4.359853 2.59571,5.820313 1.7792,1.418733 4.19953,2.126953 7.26367,2.126953 3.06419,0 5.46164,-0.70822 7.1914,-2.126953 1.7792,-1.418709 2.66993,-3.358404 2.66993,-5.820313 0,-2.545335 -0.89073,-4.528532 -2.66993,-5.947266 -1.7792,-1.418683 -4.17665,-2.126953 -7.1914,-2.126953 z m -366.95703,4.38086 v 91.507811 h 26.53906 c 13.6899,0 24.1666,-3.98524 31.43164,-11.95508 7.31446,-8.01159 10.97266,-19.57064 10.97266,-34.675778 0,-14.187188 -3.50942,-25.202239 -10.52735,-33.046875 -7.01793,-7.886388 -16.82902,-11.830078 -29.43164,-11.830078 z m 163.9082,6.759765 -5.04102,14.771485 -10.30468,6.007812 V 77.9375 h 8.00586 v 36.11328 c 0,7.21877 1.7299,12.6432 5.18945,16.27344 3.45954,3.58851 8.7713,5.38281 15.9375,5.38281 6.42487,0 11.24461,-0.93869 14.45703,-2.81641 v -13.01757 c -3.21242,1.16835 -6.20306,1.75195 -8.9707,1.75195 -4.44797,0 -6.67188,-2.33635 -6.67188,-7.00977 V 77.9375 h 14.97461 V 64.730469 H 345.25781 V 49.708984 Z m 120.0957,0 -5.04297,14.771485 -10.30273,6.007812 V 77.9375 h 8.00586 v 36.11328 c 0,7.21877 1.7299,12.6432 5.18945,16.27344 3.45953,3.58851 8.77129,5.38281 15.9375,5.38281 6.42485,0 11.24456,-0.93869 14.45703,-2.81641 v -13.01757 c -3.21247,1.16835 -6.2031,1.75195 -8.9707,1.75195 -4.448,0 -6.67187,-2.33635 -6.67187,-7.00977 V 77.9375 h 14.9746 V 64.730469 h -14.9746 V 49.708984 Z m 197.19336,0 -5.04101,14.771485 -10.30469,6.007812 V 77.9375 h 8.00586 v 36.11328 c 0,7.21877 1.72992,12.6432 5.18945,16.27344 3.45955,3.58851 8.77324,5.38281 15.93946,5.38281 6.42484,0 11.24265,-0.93869 14.45507,-2.81641 v -13.01757 c -3.21242,1.16835 -6.20305,1.75195 -8.9707,1.75195 -4.44797,0 -6.67187,-2.33635 -6.67187,-7.00977 V 77.9375 h 14.9746 V 64.730469 h -14.9746 V 49.708984 Z m -461.0332,7.949219 h 8.08008 c 13.34395,0 20.01562,10.221758 20.01562,30.667969 0,10.431748 -1.75471,18.256808 -5.26367,23.472658 -3.50897,5.17415 -8.94471,7.76172 -16.30859,7.76172 h -6.52344 z m 91.55273,5.632813 c -9.63729,0 -18.55766,2.190936 -26.76172,6.572265 l 6.82032,11.515625 c 6.42486,-3.254702 12.10858,-4.880859 17.05078,-4.880859 6.67197,0 10.00781,3.254267 10.00781,9.763672 v 5.007812 l -10.9707,0.375 c -9.48903,0.375534 -16.63185,2.356803 -21.42578,5.945313 -4.74452,3.546806 -7.11524,8.992016 -7.11524,16.335936 0,6.84321 1.72991,12.18455 5.18946,16.02344 3.50896,3.83889 8.30194,5.75781 14.38085,5.75781 4.74452,0 8.67352,-0.77057 11.78711,-2.31445 3.11359,-1.54391 6.12903,-4.36193 9.04493,-8.45117 h 0.44336 l 3.92968,9.51562 14.45703,-0.002 V 87.638672 c 0,-7.76121 -2.29828,-13.74844 -6.89453,-17.962891 -4.54682,-4.256126 -11.19565,-6.384765 -19.94336,-6.384765 z m 120.09571,0 c -9.63729,0 -18.55765,2.190936 -26.76172,6.572265 l 6.82031,11.515625 c 6.42487,-3.254702 12.1086,-4.880859 17.05078,-4.880859 6.672,0 10.00781,3.254267 10.00781,9.763672 v 5.007812 l -10.9707,0.375 c -9.48906,0.375534 -16.63185,2.356803 -21.42578,5.945313 -4.74452,3.546806 -7.11523,8.992016 -7.11523,16.335936 0,6.84321 1.72794,12.18455 5.1875,16.02344 3.50896,3.83889 8.30389,5.75781 14.38281,5.75781 4.74451,0 8.67356,-0.77057 11.78711,-2.31445 3.1136,-1.54391 6.12899,-4.36193 9.04492,-8.45117 h 0.44336 l 3.92969,9.51562 14.45507,-0.002 V 87.638672 c 0,-7.76121 -2.29634,-13.74844 -6.89257,-17.962891 -4.54685,-4.256126 -11.19567,-6.384765 -19.94336,-6.384765 z m 120.0957,0 c -9.63727,0 -18.55765,2.190936 -26.76172,6.572265 l 6.82031,11.515625 c 6.42487,-3.254702 12.1086,-4.880859 17.05078,-4.880859 6.67198,0 10.00782,3.254267 10.00782,9.763672 v 5.007812 l -10.97071,0.375 c -9.48903,0.375534 -16.63185,2.356803 -21.42578,5.945313 -4.74451,3.546806 -7.11718,8.992016 -7.11718,16.335936 0,6.84321 1.7299,12.18455 5.18945,16.02344 3.50894,3.83889 8.30389,5.75781 14.38281,5.75781 4.74452,0 8.67354,-0.77057 11.78711,-2.31445 3.1136,-1.54391 6.12902,-4.36193 9.04492,-8.45117 h 0.44336 l 3.92969,9.51562 14.45508,-0.002 V 87.638672 c 0,-7.76121 -2.29635,-13.74844 -6.89258,-17.962891 -4.54685,-4.256126 -11.19564,-6.384765 -19.94336,-6.384765 z m 169.24609,1.439453 v 69.726561 h 19.71875 V 64.730469 Z M 287.58203,101.7832 v 5.88477 c 0,4.54826 -1.08715,8.19913 -3.26172,10.95312 -2.12515,2.71224 -4.9918,4.06836 -8.59961,4.06836 -4.84336,0 -7.26367,-2.88036 -7.26367,-8.63867 0,-3.88062 1.03756,-6.80055 3.11328,-8.76172 2.12515,-1.96117 5.43619,-3.04723 9.9336,-3.25586 z m 120.0957,0 v 5.88477 c 0,4.54826 -1.08715,8.19913 -3.26171,10.95312 -2.12516,2.71224 -4.9918,4.06836 -8.59961,4.06836 -4.84337,0 -7.26563,-2.88036 -7.26563,-8.63867 0,-3.88062 1.03949,-6.80055 3.11524,-8.76172 2.12515,-1.96117 5.4362,-3.04723 9.93359,-3.25586 z m 120.09571,0 v 5.88477 c 0,4.54826 -1.08718,8.19913 -3.26172,10.95312 -2.12515,2.71224 -4.99177,4.06836 -8.59961,4.06836 -4.84334,0 -7.26563,-2.88036 -7.26563,-8.63867 0,-3.88062 1.0395,-6.80055 3.11524,-8.76172 2.12513,-1.96117 5.43618,-3.04723 9.93359,-3.25586 z"
       style="font-weight:bold;font-size:36.9107px;line-height:1.25;font-family:'Open Sans Condensed';letter-spacing:0px;word-spacing:0px;fill:#765fff;stroke-width:3.48761"
       id="path2546" />
    <rect
       x="115.24"
       y="19.809"
       width="45.636002"
       height="74.581001"
       ry="0"
       fill="#8800e3"
       stroke="#8800e3"
       stroke-width="0.637"
       style="paint-order:fill markers stroke"
       id="rect2620" />
    <rect
       x="147.03"
       y="18.921"
       width="46.346001"
       height="75.823997"
       fill="#41444e"
       style="paint-order:fill markers stroke"
       id="rect2622" />
    <rect
       x="112.38"
       y="79.269997"
       width="31.659"
       height="32.724998"
       fill="#606576"
       style="paint-order:fill markers stroke"
       id="rect2624" />
    <g
       id="g2644"
       transform="matrix(0.67692,0,0,0.67692,88.279,73.865)">
      <g
         id="g2640"
         fill="#ffffff">
        <path
           id="path2628"
           stroke-width="0.8504"
           d="m 98.256,478.21 12.4,57.148 -33.631,-14.721 -12.871,39.711 -7.5508,46.371 43.619,-22.555 44.43,21.102 -9.2656,-46.094 35.008,-33.33 -49.346,-5.9316 z"
           transform="matrix(0.26458,0,0,0.26458,6.445,101.62)" />
        <g
           id="g2638">
          <ellipse
             id="ellipse2630"
             style="paint-order:fill markers stroke"
             ry="1.0488"
             rx="1.1744"
             cy="227.41"
             cx="32.437" />
          <ellipse
             id="ellipse2632"
             style="paint-order:fill markers stroke"
             ry="1.0488"
             rx="1.1744"
             cy="239.21001"
             cx="26.863001" />
          <ellipse
             id="ellipse2634"
             style="paint-order:fill markers stroke"
             ry="1.0488"
             rx="1.1744"
             cy="241.25999"
             cx="13.563" />
          <ellipse
             id="ellipse2636"
             style="paint-order:fill markers stroke"
             ry="1.0488"
             rx="1.1744"
             cy="261.45001"
             cx="44.291" />
        </g>
      </g>
      <path
         id="path2642"
         style="paint-order:stroke fill markers"
         stroke-width="0.637"
         stroke="#ffffff"
         fill="none"
         d="m 23.419,249.88 -9.5842,-8.5074 12.99,-1.9996 5.6175,-11.225 3.2808,15.12 -8.8983,-3.895 z" />
    </g>
    <g
       id="g3322">
      <path
         style="fill:#765fff"
         id="path2600"
         d="m 27.449,176.23 3.2809,15.121 -8.8982,-3.8948 -3.4055,10.507 -1.9978,12.269 11.541,-5.9676 11.755,5.5831 -2.4515,-12.196 9.2625,-8.8186 -13.056,-1.5694 z" />
      <ellipse
         cx="9.0843334"
         cy="189.4321"
         rx="1.8745475"
         ry="1.8510524"
         style="fill:#765fff;stroke-width:1.67843;paint-order:fill markers stroke"
         id="ellipse2606" />
      <path
         d="m 18.427,197.96 -9.5842,-8.5074 12.99,-1.9996 5.6175,-11.225 3.2808,15.12 -8.8983,-3.895 z"
         fill="none"
         stroke="#765fff"
         style="paint-order:stroke fill markers"
         id="path2614" />
      <ellipse
         id="ellipse2606-1"
         style="fill:#765fff;stroke-width:1.67843;paint-order:fill markers stroke"
         ry="1.8510524"
         rx="1.8745475"
         cy="209.3407"
         cx="39.253014" />
      <ellipse
         id="ellipse2606-9"
         style="fill:#765fff;stroke-width:1.67843;paint-order:fill markers stroke"
         ry="1.8510524"
         rx="1.8745475"
         cy="176.40787"
         cx="27.212578" />
      <ellipse
         id="ellipse2606-0"
         style="fill:#765fff;stroke-width:1.67843;paint-order:fill markers stroke"
         ry="1.8510524"
         rx="1.8745475"
         cy="187.28606"
         cx="21.632633" />
    </g>
  </g>
  <g
     id="g2650"
     display="none"
     transform="translate(-7.2097859,-174.55682)">
    <rect
       id="rect2648"
       style="paint-order:fill markers stroke"
       fill="#ff8080"
       height="82.518997"
       width="80.946999"
       y="21.743999"
       x="31.712" />
  </g>
  <g
     id="g2654"
     transform="translate(-7.2097859,-174.55682)">
    <path
       id="path2652"
       stroke-width="0.26458"
       fill="#ffffff"
       d="m 83.828,79.57 -13.424,-6.7604 -13.179,7.2259 2.2812,-14.856 -10.945,-10.301 14.834,-2.4212 6.415,-13.593 6.8867,13.36 14.91,1.9008 -10.578,10.678 z"
       transform="matrix(0.85193,0,0,0.82483,-25.295,-25.434)" />
  </g>
  <g
     id="g2710"
     transform="translate(-7.2097859,-174.55682)">
    <path
       id="path2656"
       style="paint-order:stroke fill markers"
       stroke-width="1.0219"
       stroke="#ffffff"
       fill="#5245e5"
       d="M 25.4,28.328 16.0757,19.8311 28.7127,17.834 34.1779,6.622 37.3697,21.724 28.7128,17.8338 Z" />
    <g
       id="g2670"
       fill="#ffffff">
      <g
         id="g2666">
        <ellipse
           id="ellipse2658"
           style="paint-order:fill markers stroke"
           ry="1.0476"
           rx="1.1425"
           cy="5.8899002"
           cx="34.174" />
        <ellipse
           id="ellipse2660"
           style="paint-order:fill markers stroke"
           ry="1.0476"
           rx="1.1425"
           cy="17.671"
           cx="28.750999" />
        <ellipse
           id="ellipse2662"
           style="paint-order:fill markers stroke"
           ry="1.0476"
           rx="1.1425"
           cy="19.719"
           cx="15.812" />
        <ellipse
           id="ellipse2664"
           style="paint-order:fill markers stroke"
           ry="1.0476"
           rx="1.1425"
           cy="39.883999"
           cx="45.706001" />
      </g>
      <path
         id="path2668"
         stroke-width="0.26458"
         d="m 83.828,79.57 -13.424,-6.7604 -13.179,7.2259 2.2812,-14.856 -10.945,-10.301 14.834,-2.4212 6.415,-13.593 6.8867,13.36 14.91,1.9008 -10.578,10.678 z"
         transform="matrix(0.87568,0,0,0.82585,-30.288,225.12)" />
    </g>
    <path
       id="path2672"
       style="paint-order:stroke fill markers"
       stroke-width="1.0366"
       stroke="#ffffff"
       fill="#8200ff"
       d="m 21.821,278.95 -9.5842,-8.5074 12.99,-1.9996 5.6175,-11.225 3.2808,15.12 -8.8983,-3.895 z" />
    <g
       id="g2682"
       fill="#ffffff">
      <ellipse
         id="ellipse2674"
         style="paint-order:fill markers stroke"
         ry="1.0488"
         rx="1.1744"
         cy="256.48001"
         cx="30.839001" />
      <ellipse
         id="ellipse2676"
         style="paint-order:fill markers stroke"
         ry="1.0488"
         rx="1.1744"
         cy="268.28"
         cx="25.264999" />
      <ellipse
         id="ellipse2678"
         style="paint-order:fill markers stroke"
         ry="1.0488"
         rx="1.1744"
         cy="270.32999"
         cx="11.965" />
      <ellipse
         id="ellipse2680"
         style="paint-order:fill markers stroke"
         ry="1.0488"
         rx="1.1744"
         cy="290.51999"
         cx="42.693001" />
    </g>
    <text
       id="text2686"
       xml:space="preserve"
       style="line-height:1.25"
       word-spacing="0px"
       stroke-width="0.92277"
       letter-spacing="0px"
       font-size="36.911px"
       font-family="'Open Sans Condensed'"
       fill="#8200ff"
       y="319.68256"
       x="50.92828"
       transform="scale(1.0883,0.91885)"><tspan
         id="tspan2684"
         stroke-width="0.92277"
         font-weight="bold"
         fill="#8200ff"
         y="319.68256"
         x="50.92828">Datatähti</tspan></text>
    <rect
       id="rect2688"
       stroke-width="0.040221"
       fill="#b57fe9"
       ry="1.4581"
       height="12.116"
       width="12.74"
       y="91.113998"
       x="10.33" />
    <g
       id="g2704"
       transform="matrix(0.29483,0,0,0.28342,7.2046,27.724)">
      <path
         id="path2690"
         stroke-width="0.26458"
         fill="#ffffff"
         d="m 83.828,79.57 -13.424,-6.7604 -13.179,7.2259 2.2812,-14.856 -10.945,-10.301 14.834,-2.4212 6.415,-13.593 6.8867,13.36 14.91,1.9008 -10.578,10.678 z"
         transform="matrix(0.87568,0,0,0.82585,-28.689,196.05)" />
      <path
         id="path2692"
         style="paint-order:stroke fill markers"
         stroke-width="1.0366"
         stroke="#ffffff"
         fill="#b57fe9"
         d="m 23.419,249.88 -9.5842,-8.5074 12.99,-1.9996 5.6175,-11.225 3.2808,15.12 -8.8983,-3.895 z" />
      <g
         id="g2702"
         fill="#ffffff">
        <ellipse
           id="ellipse2694"
           style="paint-order:fill markers stroke"
           ry="1.0488"
           rx="1.1744"
           cy="227.41"
           cx="32.437" />
        <ellipse
           id="ellipse2696"
           style="paint-order:fill markers stroke"
           ry="1.0488"
           rx="1.1744"
           cy="239.21001"
           cx="26.863001" />
        <ellipse
           id="ellipse2698"
           style="paint-order:fill markers stroke"
           ry="1.0488"
           rx="1.1744"
           cy="241.25999"
           cx="13.563" />
        <ellipse
           id="ellipse2700"
           style="paint-order:fill markers stroke"
           ry="1.0488"
           rx="1.1744"
           cy="261.45001"
           cx="44.291" />
      </g>
    </g>
    <text
       id="text2708"
       xml:space="preserve"
       style="line-height:1.25"
       word-spacing="0px"
       stroke-width="0.26674"
       letter-spacing="0px"
       font-size="10.67px"
       font-family="'Open Sans Condensed'"
       fill="#b57fe9"
       y="114.03973"
       x="21.636921"
       transform="scale(1.11,0.90089)"><tspan
         id="tspan2706"
         stroke-width="0.26674"
         font-weight="bold"
         fill="#b57fe9"
         y="114.03973"
         x="21.636921">Datatähti</tspan></text>
  </g>
</svg>
