<?xml version="1.0" encoding="UTF-8" standalone="no"?>
<svg
   xmlns:dc="http://purl.org/dc/elements/1.1/"
   xmlns:cc="http://creativecommons.org/ns#"
   xmlns:rdf="http://www.w3.org/1999/02/22-rdf-syntax-ns#"
   xmlns:svg="http://www.w3.org/2000/svg"
   xmlns="http://www.w3.org/2000/svg"
   xmlns:sodipodi="http://sodipodi.sourceforge.net/DTD/sodipodi-0.dtd"
   xmlns:inkscape="http://www.inkscape.org/namespaces/inkscape"
   width="39.325615mm"
   height="36.634933mm"
   version="1.1"
   viewBox="0 0 39.325614 36.634934"
   id="svg2712"
   sodipodi:docname="datatähti_logo_tähti.svg"
   inkscape:version="1.0 (4035a4fb49, 2020-05-01)">
  <defs
     id="defs2716" />
  <sodipodi:namedview
     inkscape:document-rotation="0"
     pagecolor="#ffffff"
     bordercolor="#666666"
     borderopacity="1"
     objecttolerance="10"
     gridtolerance="10"
     guidetolerance="10"
     inkscape:pageopacity="0"
     inkscape:pageshadow="2"
     inkscape:window-width="1920"
     inkscape:window-height="1017"
     id="namedview2714"
     showgrid="false"
     inkscape:zoom="3.2065584"
     inkscape:cx="122.7694"
     inkscape:cy="62.92348"
     inkscape:window-x="-8"
     inkscape:window-y="-8"
     inkscape:window-maximized="1"
     inkscape:current-layer="g2646" />
  <metadata
     id="metadata2518">
    <rdf:RDF>
      <cc:Work
         rdf:about="">
        <dc:format>image/svg+xml</dc:format>
        <dc:type
           rdf:resource="http://purl.org/dc/dcmitype/StillImage" />
        <dc:title></dc:title>
      </cc:Work>
    </rdf:RDF>
  </metadata>
  <g
     transform="translate(-7.2097859,-174.55682)"
     id="g2570">
    <rect
       x="13.048"
       y="1.9545"
       width="41.918999"
       height="41.597"
       fill="#5245e5"
       stroke-width="0.13518"
       id="rect2520" />
    <rect
       x="60.327"
       y="2.0418999"
       width="41.918999"
       height="41.597"
       fill="#f6546b"
       stroke-width="0.13518"
       id="rect2522" />
    <path
       transform="matrix(0.85193,0,0,0.82483,21.985,-25.346)"
       d="m 83.828,79.57 -13.424,-6.7604 -13.179,7.2259 2.2812,-14.856 -10.945,-10.301 14.834,-2.4212 6.415,-13.593 6.8867,13.36 14.91,1.9008 -10.578,10.678 z"
       fill="#ffffff"
       stroke-width="0.26458"
       id="path2524" />
    <path
       d="M 72.68,28.416 63.3557,19.9191 75.9927,17.922 81.4579,6.71 84.6497,21.812 75.9928,17.9218 Z"
       fill="#f6546b"
       stroke="#ffffff"
       stroke-width="1.0219"
       style="paint-order:stroke fill markers"
       id="path2526" />
    <g
       fill="#ffffff"
       id="g2536">
      <ellipse
         cx="81.453003"
         cy="5.9773002"
         rx="1.1425"
         ry="1.0476"
         style="paint-order:fill markers stroke"
         id="ellipse2528" />
      <ellipse
         cx="76.029999"
         cy="17.759001"
         rx="1.1425"
         ry="1.0476"
         style="paint-order:fill markers stroke"
         id="ellipse2530" />
      <ellipse
         cx="63.091"
         cy="19.806"
         rx="1.1425"
         ry="1.0476"
         style="paint-order:fill markers stroke"
         id="ellipse2532" />
      <ellipse
         cx="92.985001"
         cy="39.971001"
         rx="1.1425"
         ry="1.0476"
         style="paint-order:fill markers stroke"
         id="ellipse2534" />
    </g>
    <rect
       x="12.984"
       y="47.258999"
       width="41.918999"
       height="41.597"
       fill="#ff7600"
       stroke-width="0.13518"
       id="rect2538" />
    <path
       transform="matrix(0.85193,0,0,0.82483,-25.359,19.871)"
       d="m 83.828,79.57 -13.424,-6.7604 -13.179,7.2259 2.2812,-14.856 -10.945,-10.301 14.834,-2.4212 6.415,-13.593 6.8867,13.36 14.91,1.9008 -10.578,10.678 z"
       fill="#ffffff"
       stroke-width="0.26458"
       id="path2540" />
    <path
       d="m 25.336,73.633 -9.3243,-8.4969 12.637,-1.9971 5.4652,-11.212 3.1918,15.102 -8.6569,-3.8902 z"
       fill="#ff7600"
       stroke="#ffffff"
       stroke-width="1.0219"
       style="paint-order:stroke fill markers"
       id="path2542" />
    <g
       fill="#ffffff"
       id="g2552">
      <ellipse
         cx="34.110001"
         cy="51.194"
         rx="1.1425"
         ry="1.0476"
         style="paint-order:fill markers stroke"
         id="ellipse2544" />
      <ellipse
         cx="28.687"
         cy="62.976002"
         rx="1.1425"
         ry="1.0476"
         style="paint-order:fill markers stroke"
         id="ellipse2546" />
      <ellipse
         cx="15.748"
         cy="65.023003"
         rx="1.1425"
         ry="1.0476"
         style="paint-order:fill markers stroke"
         id="ellipse2548" />
      <ellipse
         cx="45.641998"
         cy="85.188004"
         rx="1.1425"
         ry="1.0476"
         style="paint-order:fill markers stroke"
         id="ellipse2550" />
    </g>
    <rect
       x="60.327"
       y="47.258999"
       width="41.918999"
       height="41.597"
       fill="#8200ff"
       stroke-width="0.13518"
       id="rect2554" />
    <path
       transform="matrix(0.85193,0,0,0.82483,21.985,19.871)"
       d="m 83.828,79.57 -13.424,-6.7604 -13.179,7.2259 2.2812,-14.856 -10.945,-10.301 14.834,-2.4212 6.415,-13.593 6.8867,13.36 14.91,1.9008 -10.578,10.678 z"
       fill="#ffffff"
       stroke-width="0.26458"
       id="path2556" />
    <path
       d="m 72.68,73.633 -9.3243,-8.4969 12.637,-1.9971 5.4652,-11.212 3.1918,15.102 -8.6569,-3.8902 z"
       fill="#b57fe9"
       stroke="#ffffff"
       stroke-width="1.0219"
       style="paint-order:stroke fill markers"
       id="path2558" />
    <g
       fill="#ffffff"
       id="g2568">
      <ellipse
         cx="81.453003"
         cy="51.194"
         rx="1.1425"
         ry="1.0476"
         style="paint-order:fill markers stroke"
         id="ellipse2560" />
      <ellipse
         cx="76.029999"
         cy="62.976002"
         rx="1.1425"
         ry="1.0476"
         style="paint-order:fill markers stroke"
         id="ellipse2562" />
      <ellipse
         cx="63.091"
         cy="65.023003"
         rx="1.1425"
         ry="1.0476"
         style="paint-order:fill markers stroke"
         id="ellipse2564" />
      <ellipse
         cx="92.985001"
         cy="85.188004"
         rx="1.1425"
         ry="1.0476"
         style="paint-order:fill markers stroke"
         id="ellipse2566" />
    </g>
  </g>
  <g
     transform="translate(-7.2097859,-174.55682)"
     id="g2646">
    <rect
       x="93.953003"
       y="222.92"
       width="32.252998"
       height="32.252998"
       fill="#41444e"
       style="paint-order:fill markers stroke"
       id="rect2572" />
    <rect
       x="3.3275001"
       y="122.8"
       width="199.62"
       height="41.945999"
       ry="0"
       fill="#765fff"
       style="paint-order:fill markers stroke"
       id="rect2574" />
    <g
       transform="translate(-6.445,-101.62)"
       id="g2592">
      <g
         fill="#ffffff"
         id="g2588">
        <path
           transform="matrix(0.26458,0,0,0.26458,6.445,101.62)"
           d="m 98.256,478.21 12.4,57.148 -33.631,-14.721 -12.871,39.711 -7.5508,46.371 43.619,-22.555 44.43,21.102 -9.2656,-46.094 35.008,-33.33 -49.346,-5.9316 z"
           stroke-width="0.8504"
           id="path2576" />
        <g
           id="g2586">
          <ellipse
             cx="32.437"
             cy="227.41"
             rx="1.1744"
             ry="1.0488"
             style="paint-order:fill markers stroke"
             id="ellipse2578" />
          <ellipse
             cx="26.863001"
             cy="239.21001"
             rx="1.1744"
             ry="1.0488"
             style="paint-order:fill markers stroke"
             id="ellipse2580" />
          <ellipse
             cx="13.563"
             cy="241.25999"
             rx="1.1744"
             ry="1.0488"
             style="paint-order:fill markers stroke"
             id="ellipse2582" />
          <ellipse
             cx="44.291"
             cy="261.45001"
             rx="1.1744"
             ry="1.0488"
             style="paint-order:fill markers stroke"
             id="ellipse2584" />
        </g>
      </g>
      <path
         d="m 23.419,249.88 -9.5842,-8.5074 12.99,-1.9996 5.6175,-11.225 3.2808,15.12 -8.8983,-3.895 z"
         fill="none"
         stroke="#ffffff"
         stroke-width="0.637"
         style="paint-order:stroke fill markers"
         id="path2590" />
    </g>
    <text
       transform="scale(1.0883,0.91885)"
       x="43.990345"
       y="174.59741"
       fill="#ffffff"
       font-family="'Open Sans Condensed'"
       font-size="36.911px"
       letter-spacing="0px"
       stroke-width="0.92277"
       word-spacing="0px"
       style="line-height:1.25"
       xml:space="preserve"
       id="text2596"><tspan
         x="43.990345"
         y="174.59741"
         fill="#ffffff"
         font-weight="bold"
         stroke-width="0.92277"
         id="tspan2594">Datatähti</tspan></text>
    <rect
       x="5.8079"
       y="176.73"
       width="199.62"
       height="53.108002"
       ry="0"
       opacity="0"
       stroke-width="2.2504"
       style="paint-order:fill markers stroke"
       id="rect2598" />
    <text
       id="text2618"
       xml:space="preserve"
       style="line-height:1.25"
       word-spacing="0px"
       stroke-width="0.922763"
       letter-spacing="0px"
       font-size="36.9107px"
       font-family="'Open Sans Condensed'"
       fill="#765fff"
       y="228.68806"
       x="45.324684"
       transform="scale(1.0883085,0.91885714)"><tspan
         id="tspan2616"
         stroke-width="0.922763"
         font-weight="bold"
         fill="#765fff"
         y="228.68806"
         x="45.324684">Datatähti</tspan></text>
    <rect
       id="rect2620"
       style="paint-order:fill markers stroke"
       stroke-width="0.637"
       stroke="#8800e3"
       fill="#8800e3"
       ry="0"
       height="74.581001"
       width="45.636002"
       y="19.809"
       x="115.24" />
    <rect
       id="rect2622"
       style="paint-order:fill markers stroke"
       fill="#41444e"
       height="75.823997"
       width="46.346001"
       y="18.921"
       x="147.03" />
    <rect
       id="rect2624"
       style="paint-order:fill markers stroke"
       fill="#606576"
       height="32.724998"
       width="31.659"
       y="79.269997"
       x="112.38" />
    <g
       transform="matrix(0.67692,0,0,0.67692,88.279,73.865)"
       id="g2644">
      <g
         fill="#ffffff"
         id="g2640">
        <path
           transform="matrix(0.26458,0,0,0.26458,6.445,101.62)"
           d="m 98.256,478.21 12.4,57.148 -33.631,-14.721 -12.871,39.711 -7.5508,46.371 43.619,-22.555 44.43,21.102 -9.2656,-46.094 35.008,-33.33 -49.346,-5.9316 z"
           stroke-width="0.8504"
           id="path2628" />
        <g
           id="g2638">
          <ellipse
             cx="32.437"
             cy="227.41"
             rx="1.1744"
             ry="1.0488"
             style="paint-order:fill markers stroke"
             id="ellipse2630" />
          <ellipse
             cx="26.863001"
             cy="239.21001"
             rx="1.1744"
             ry="1.0488"
             style="paint-order:fill markers stroke"
             id="ellipse2632" />
          <ellipse
             cx="13.563"
             cy="241.25999"
             rx="1.1744"
             ry="1.0488"
             style="paint-order:fill markers stroke"
             id="ellipse2634" />
          <ellipse
             cx="44.291"
             cy="261.45001"
             rx="1.1744"
             ry="1.0488"
             style="paint-order:fill markers stroke"
             id="ellipse2636" />
        </g>
      </g>
      <path
         d="m 23.419,249.88 -9.5842,-8.5074 12.99,-1.9996 5.6175,-11.225 3.2808,15.12 -8.8983,-3.895 z"
         fill="none"
         stroke="#ffffff"
         stroke-width="0.637"
         style="paint-order:stroke fill markers"
         id="path2642" />
    </g>
    <g
       id="g3322">
      <path
         d="m 27.449,176.23 3.2809,15.121 -8.8982,-3.8948 -3.4055,10.507 -1.9978,12.269 11.541,-5.9676 11.755,5.5831 -2.4515,-12.196 9.2625,-8.8186 -13.056,-1.5694 z"
         id="path2600"
         style="fill:#765fff" />
      <ellipse
         id="ellipse2606"
         style="fill:#765fff;stroke-width:1.67843;paint-order:fill markers stroke"
         ry="1.8510524"
         rx="1.8745475"
         cy="189.4321"
         cx="9.0843334" />
      <path
         id="path2614"
         style="paint-order:stroke fill markers"
         stroke="#765fff"
         fill="none"
         d="m 18.427,197.96 -9.5842,-8.5074 12.99,-1.9996 5.6175,-11.225 3.2808,15.12 -8.8983,-3.895 z" />
      <ellipse
         cx="39.253014"
         cy="209.3407"
         rx="1.8745475"
         ry="1.8510524"
         style="fill:#765fff;stroke-width:1.67843;paint-order:fill markers stroke"
         id="ellipse2606-1" />
      <ellipse
         cx="27.212578"
         cy="176.40787"
         rx="1.8745475"
         ry="1.8510524"
         style="fill:#765fff;stroke-width:1.67843;paint-order:fill markers stroke"
         id="ellipse2606-9" />
      <ellipse
         cx="21.632633"
         cy="187.28606"
         rx="1.8745475"
         ry="1.8510524"
         style="fill:#765fff;stroke-width:1.67843;paint-order:fill markers stroke"
         id="ellipse2606-0" />
    </g>
  </g>
  <g
     transform="translate(-7.2097859,-174.55682)"
     display="none"
     id="g2650">
    <rect
       x="31.712"
       y="21.743999"
       width="80.946999"
       height="82.518997"
       fill="#ff8080"
       style="paint-order:fill markers stroke"
       id="rect2648" />
  </g>
  <g
     transform="translate(-7.2097859,-174.55682)"
     id="g2654">
    <path
       transform="matrix(0.85193,0,0,0.82483,-25.295,-25.434)"
       d="m 83.828,79.57 -13.424,-6.7604 -13.179,7.2259 2.2812,-14.856 -10.945,-10.301 14.834,-2.4212 6.415,-13.593 6.8867,13.36 14.91,1.9008 -10.578,10.678 z"
       fill="#ffffff"
       stroke-width="0.26458"
       id="path2652" />
  </g>
  <g
     transform="translate(-7.2097859,-174.55682)"
     id="g2710">
    <path
       d="M 25.4,28.328 16.0757,19.8311 28.7127,17.834 34.1779,6.622 37.3697,21.724 28.7128,17.8338 Z"
       fill="#5245e5"
       stroke="#ffffff"
       stroke-width="1.0219"
       style="paint-order:stroke fill markers"
       id="path2656" />
    <g
       fill="#ffffff"
       id="g2670">
      <g
         id="g2666">
        <ellipse
           cx="34.174"
           cy="5.8899002"
           rx="1.1425"
           ry="1.0476"
           style="paint-order:fill markers stroke"
           id="ellipse2658" />
        <ellipse
           cx="28.750999"
           cy="17.671"
           rx="1.1425"
           ry="1.0476"
           style="paint-order:fill markers stroke"
           id="ellipse2660" />
        <ellipse
           cx="15.812"
           cy="19.719"
           rx="1.1425"
           ry="1.0476"
           style="paint-order:fill markers stroke"
           id="ellipse2662" />
        <ellipse
           cx="45.706001"
           cy="39.883999"
           rx="1.1425"
           ry="1.0476"
           style="paint-order:fill markers stroke"
           id="ellipse2664" />
      </g>
      <path
         transform="matrix(0.87568,0,0,0.82585,-30.288,225.12)"
         d="m 83.828,79.57 -13.424,-6.7604 -13.179,7.2259 2.2812,-14.856 -10.945,-10.301 14.834,-2.4212 6.415,-13.593 6.8867,13.36 14.91,1.9008 -10.578,10.678 z"
         stroke-width="0.26458"
         id="path2668" />
    </g>
    <path
       d="m 21.821,278.95 -9.5842,-8.5074 12.99,-1.9996 5.6175,-11.225 3.2808,15.12 -8.8983,-3.895 z"
       fill="#8200ff"
       stroke="#ffffff"
       stroke-width="1.0366"
       style="paint-order:stroke fill markers"
       id="path2672" />
    <g
       fill="#ffffff"
       id="g2682">
      <ellipse
         cx="30.839001"
         cy="256.48001"
         rx="1.1744"
         ry="1.0488"
         style="paint-order:fill markers stroke"
         id="ellipse2674" />
      <ellipse
         cx="25.264999"
         cy="268.28"
         rx="1.1744"
         ry="1.0488"
         style="paint-order:fill markers stroke"
         id="ellipse2676" />
      <ellipse
         cx="11.965"
         cy="270.32999"
         rx="1.1744"
         ry="1.0488"
         style="paint-order:fill markers stroke"
         id="ellipse2678" />
      <ellipse
         cx="42.693001"
         cy="290.51999"
         rx="1.1744"
         ry="1.0488"
         style="paint-order:fill markers stroke"
         id="ellipse2680" />
    </g>
    <text
       transform="scale(1.0883,0.91885)"
       x="50.92828"
       y="319.68256"
       fill="#8200ff"
       font-family="'Open Sans Condensed'"
       font-size="36.911px"
       letter-spacing="0px"
       stroke-width="0.92277"
       word-spacing="0px"
       style="line-height:1.25"
       xml:space="preserve"
       id="text2686"><tspan
         x="50.92828"
         y="319.68256"
         fill="#8200ff"
         font-weight="bold"
         stroke-width="0.92277"
         id="tspan2684">Datatähti</tspan></text>
    <rect
       x="10.33"
       y="91.113998"
       width="12.74"
       height="12.116"
       ry="1.4581"
       fill="#b57fe9"
       stroke-width="0.040221"
       id="rect2688" />
    <g
       transform="matrix(0.29483,0,0,0.28342,7.2046,27.724)"
       id="g2704">
      <path
         transform="matrix(0.87568,0,0,0.82585,-28.689,196.05)"
         d="m 83.828,79.57 -13.424,-6.7604 -13.179,7.2259 2.2812,-14.856 -10.945,-10.301 14.834,-2.4212 6.415,-13.593 6.8867,13.36 14.91,1.9008 -10.578,10.678 z"
         fill="#ffffff"
         stroke-width="0.26458"
         id="path2690" />
      <path
         d="m 23.419,249.88 -9.5842,-8.5074 12.99,-1.9996 5.6175,-11.225 3.2808,15.12 -8.8983,-3.895 z"
         fill="#b57fe9"
         stroke="#ffffff"
         stroke-width="1.0366"
         style="paint-order:stroke fill markers"
         id="path2692" />
      <g
         fill="#ffffff"
         id="g2702">
        <ellipse
           cx="32.437"
           cy="227.41"
           rx="1.1744"
           ry="1.0488"
           style="paint-order:fill markers stroke"
           id="ellipse2694" />
        <ellipse
           cx="26.863001"
           cy="239.21001"
           rx="1.1744"
           ry="1.0488"
           style="paint-order:fill markers stroke"
           id="ellipse2696" />
        <ellipse
           cx="13.563"
           cy="241.25999"
           rx="1.1744"
           ry="1.0488"
           style="paint-order:fill markers stroke"
           id="ellipse2698" />
        <ellipse
           cx="44.291"
           cy="261.45001"
           rx="1.1744"
           ry="1.0488"
           style="paint-order:fill markers stroke"
           id="ellipse2700" />
      </g>
    </g>
    <text
       transform="scale(1.11,0.90089)"
       x="21.636921"
       y="114.03973"
       fill="#b57fe9"
       font-family="'Open Sans Condensed'"
       font-size="10.67px"
       letter-spacing="0px"
       stroke-width="0.26674"
       word-spacing="0px"
       style="line-height:1.25"
       xml:space="preserve"
       id="text2708"><tspan
         x="21.636921"
         y="114.03973"
         fill="#b57fe9"
         font-weight="bold"
         stroke-width="0.26674"
         id="tspan2706">Datatähti</tspan></text>
  </g>
</svg>
