<?xml version="1.0" encoding="UTF-8" standalone="no"?>
<svg
   xmlns:dc="http://purl.org/dc/elements/1.1/"
   xmlns:cc="http://creativecommons.org/ns#"
   xmlns:rdf="http://www.w3.org/1999/02/22-rdf-syntax-ns#"
   xmlns:svg="http://www.w3.org/2000/svg"
   xmlns="http://www.w3.org/2000/svg"
   xmlns:sodipodi="http://sodipodi.sourceforge.net/DTD/sodipodi-0.dtd"
   xmlns:inkscape="http://www.inkscape.org/namespaces/inkscape"
   inkscape:version="1.0 (4035a4fb49, 2020-05-01)"
   sodipodi:docname="datatähti_logo_tähti_valkoinen.svg"
   id="svg2712"
   viewBox="0 0 39.325614 36.634938"
   version="1.1"
   height="36.634937mm"
   width="39.325615mm">
  <defs
     id="defs2716" />
  <sodipodi:namedview
     inkscape:current-layer="g2646"
     inkscape:window-maximized="1"
     inkscape:window-y="-8"
     inkscape:window-x="-8"
     inkscape:cy="85.781813"
     inkscape:cx="49.777392"
     inkscape:zoom="3.2065584"
     showgrid="false"
     id="namedview2714"
     inkscape:window-height="1017"
     inkscape:window-width="1920"
     inkscape:pageshadow="2"
     inkscape:pageopacity="0"
     guidetolerance="10"
     gridtolerance="10"
     objecttolerance="10"
     borderopacity="1"
     bordercolor="#666666"
     pagecolor="#ffffff"
     inkscape:document-rotation="0" />
  <metadata
     id="metadata2518">
    <rdf:RDF>
      <cc:Work
         rdf:about="">
        <dc:format>image/svg+xml</dc:format>
        <dc:type
           rdf:resource="http://purl.org/dc/dcmitype/StillImage" />
        <dc:title></dc:title>
      </cc:Work>
    </rdf:RDF>
  </metadata>
  <g
     id="g2570"
     transform="translate(97.606624,-177.03267)">
    <rect
       id="rect2520"
       stroke-width="0.13518"
       fill="#5245e5"
       height="41.597"
       width="41.918999"
       y="1.9545"
       x="13.048" />
    <rect
       id="rect2522"
       stroke-width="0.13518"
       fill="#f6546b"
       height="41.597"
       width="41.918999"
       y="2.0418999"
       x="60.327" />
    <path
       id="path2524"
       stroke-width="0.26458"
       fill="#ffffff"
       d="m 83.828,79.57 -13.424,-6.7604 -13.179,7.2259 2.2812,-14.856 -10.945,-10.301 14.834,-2.4212 6.415,-13.593 6.8867,13.36 14.91,1.9008 -10.578,10.678 z"
       transform="matrix(0.85193,0,0,0.82483,21.985,-25.346)" />
    <path
       id="path2526"
       style="paint-order:stroke fill markers"
       stroke-width="1.0219"
       stroke="#ffffff"
       fill="#f6546b"
       d="M 72.68,28.416 63.3557,19.9191 75.9927,17.922 81.4579,6.71 84.6497,21.812 75.9928,17.9218 Z" />
    <g
       id="g2536"
       fill="#ffffff">
      <ellipse
         id="ellipse2528"
         style="paint-order:fill markers stroke"
         ry="1.0476"
         rx="1.1425"
         cy="5.9773002"
         cx="81.453003" />
      <ellipse
         id="ellipse2530"
         style="paint-order:fill markers stroke"
         ry="1.0476"
         rx="1.1425"
         cy="17.759001"
         cx="76.029999" />
      <ellipse
         id="ellipse2532"
         style="paint-order:fill markers stroke"
         ry="1.0476"
         rx="1.1425"
         cy="19.806"
         cx="63.091" />
      <ellipse
         id="ellipse2534"
         style="paint-order:fill markers stroke"
         ry="1.0476"
         rx="1.1425"
         cy="39.971001"
         cx="92.985001" />
    </g>
    <rect
       id="rect2538"
       stroke-width="0.13518"
       fill="#ff7600"
       height="41.597"
       width="41.918999"
       y="47.258999"
       x="12.984" />
    <path
       id="path2540"
       stroke-width="0.26458"
       fill="#ffffff"
       d="m 83.828,79.57 -13.424,-6.7604 -13.179,7.2259 2.2812,-14.856 -10.945,-10.301 14.834,-2.4212 6.415,-13.593 6.8867,13.36 14.91,1.9008 -10.578,10.678 z"
       transform="matrix(0.85193,0,0,0.82483,-25.359,19.871)" />
    <path
       id="path2542"
       style="paint-order:stroke fill markers"
       stroke-width="1.0219"
       stroke="#ffffff"
       fill="#ff7600"
       d="m 25.336,73.633 -9.3243,-8.4969 12.637,-1.9971 5.4652,-11.212 3.1918,15.102 -8.6569,-3.8902 z" />
    <g
       id="g2552"
       fill="#ffffff">
      <ellipse
         id="ellipse2544"
         style="paint-order:fill markers stroke"
         ry="1.0476"
         rx="1.1425"
         cy="51.194"
         cx="34.110001" />
      <ellipse
         id="ellipse2546"
         style="paint-order:fill markers stroke"
         ry="1.0476"
         rx="1.1425"
         cy="62.976002"
         cx="28.687" />
      <ellipse
         id="ellipse2548"
         style="paint-order:fill markers stroke"
         ry="1.0476"
         rx="1.1425"
         cy="65.023003"
         cx="15.748" />
      <ellipse
         id="ellipse2550"
         style="paint-order:fill markers stroke"
         ry="1.0476"
         rx="1.1425"
         cy="85.188004"
         cx="45.641998" />
    </g>
    <rect
       id="rect2554"
       stroke-width="0.13518"
       fill="#8200ff"
       height="41.597"
       width="41.918999"
       y="47.258999"
       x="60.327" />
    <path
       id="path2556"
       stroke-width="0.26458"
       fill="#ffffff"
       d="m 83.828,79.57 -13.424,-6.7604 -13.179,7.2259 2.2812,-14.856 -10.945,-10.301 14.834,-2.4212 6.415,-13.593 6.8867,13.36 14.91,1.9008 -10.578,10.678 z"
       transform="matrix(0.85193,0,0,0.82483,21.985,19.871)" />
    <path
       id="path2558"
       style="paint-order:stroke fill markers"
       stroke-width="1.0219"
       stroke="#ffffff"
       fill="#b57fe9"
       d="m 72.68,73.633 -9.3243,-8.4969 12.637,-1.9971 5.4652,-11.212 3.1918,15.102 -8.6569,-3.8902 z" />
    <g
       id="g2568"
       fill="#ffffff">
      <ellipse
         id="ellipse2560"
         style="paint-order:fill markers stroke"
         ry="1.0476"
         rx="1.1425"
         cy="51.194"
         cx="81.453003" />
      <ellipse
         id="ellipse2562"
         style="paint-order:fill markers stroke"
         ry="1.0476"
         rx="1.1425"
         cy="62.976002"
         cx="76.029999" />
      <ellipse
         id="ellipse2564"
         style="paint-order:fill markers stroke"
         ry="1.0476"
         rx="1.1425"
         cy="65.023003"
         cx="63.091" />
      <ellipse
         id="ellipse2566"
         style="paint-order:fill markers stroke"
         ry="1.0476"
         rx="1.1425"
         cy="85.188004"
         cx="92.985001" />
    </g>
  </g>
  <g
     id="g2646"
     transform="translate(97.606624,-177.03267)">
    <rect
       id="rect2572"
       style="paint-order:fill markers stroke"
       fill="#41444e"
       height="32.252998"
       width="32.252998"
       y="222.92"
       x="93.953003" />
    <rect
       id="rect2574"
       style="paint-order:fill markers stroke"
       fill="#765fff"
       ry="0"
       height="41.945999"
       width="199.62"
       y="122.8"
       x="3.3275001" />
    <g
       id="g2592"
       transform="translate(-6.445,-101.62)">
      <g
         id="g2588"
         fill="#ffffff">
        <path
           id="path2576"
           stroke-width="0.8504"
           d="m 98.256,478.21 12.4,57.148 -33.631,-14.721 -12.871,39.711 -7.5508,46.371 43.619,-22.555 44.43,21.102 -9.2656,-46.094 35.008,-33.33 -49.346,-5.9316 z"
           transform="matrix(0.26458,0,0,0.26458,6.445,101.62)" />
        <g
           id="g2586">
          <ellipse
             id="ellipse2578"
             style="paint-order:fill markers stroke"
             ry="1.0488"
             rx="1.1744"
             cy="227.41"
             cx="32.437" />
          <ellipse
             id="ellipse2580"
             style="paint-order:fill markers stroke"
             ry="1.0488"
             rx="1.1744"
             cy="239.21001"
             cx="26.863001" />
          <ellipse
             id="ellipse2582"
             style="paint-order:fill markers stroke"
             ry="1.0488"
             rx="1.1744"
             cy="241.25999"
             cx="13.563" />
          <ellipse
             id="ellipse2584"
             style="paint-order:fill markers stroke"
             ry="1.0488"
             rx="1.1744"
             cy="261.45001"
             cx="44.291" />
        </g>
      </g>
      <path
         id="path2590"
         style="paint-order:stroke fill markers"
         stroke-width="0.637"
         stroke="#ffffff"
         fill="none"
         d="m 23.419,249.88 -9.5842,-8.5074 12.99,-1.9996 5.6175,-11.225 3.2808,15.12 -8.8983,-3.895 z" />
    </g>
    <text
       id="text2596"
       xml:space="preserve"
       style="line-height:1.25"
       word-spacing="0px"
       stroke-width="0.92277"
       letter-spacing="0px"
       font-size="36.911px"
       font-family="'Open Sans Condensed'"
       fill="#ffffff"
       y="174.59741"
       x="43.990345"
       transform="scale(1.0883,0.91885)"><tspan
         id="tspan2594"
         stroke-width="0.92277"
         font-weight="bold"
         fill="#ffffff"
         y="174.59741"
         x="43.990345">Datatähti</tspan></text>
    <rect
       id="rect2598"
       style="paint-order:fill markers stroke"
       stroke-width="2.2504"
       opacity="0"
       ry="0"
       height="53.108002"
       width="199.62"
       y="176.73"
       x="5.8079" />
    <text
       transform="scale(1.0883085,0.91885714)"
       x="45.324684"
       y="228.68806"
       fill="#765fff"
       font-family="'Open Sans Condensed'"
       font-size="36.9107px"
       letter-spacing="0px"
       stroke-width="0.922763"
       word-spacing="0px"
       style="line-height:1.25"
       xml:space="preserve"
       id="text2618"><tspan
         x="45.324684"
         y="228.68806"
         fill="#765fff"
         font-weight="bold"
         stroke-width="0.922763"
         id="tspan2616">Datatähti</tspan></text>
    <rect
       x="115.24"
       y="19.809"
       width="45.636002"
       height="74.581001"
       ry="0"
       fill="#8800e3"
       stroke="#8800e3"
       stroke-width="0.637"
       style="paint-order:fill markers stroke"
       id="rect2620" />
    <rect
       x="147.03"
       y="18.921"
       width="46.346001"
       height="75.823997"
       fill="#41444e"
       style="paint-order:fill markers stroke"
       id="rect2622" />
    <rect
       x="112.38"
       y="79.269997"
       width="31.659"
       height="32.724998"
       fill="#606576"
       style="paint-order:fill markers stroke"
       id="rect2624" />
    <g
       id="g2644"
       transform="matrix(0.67692,0,0,0.67692,88.279,73.865)">
      <g
         id="g2640"
         fill="#ffffff">
        <path
           id="path2628"
           stroke-width="0.8504"
           d="m 98.256,478.21 12.4,57.148 -33.631,-14.721 -12.871,39.711 -7.5508,46.371 43.619,-22.555 44.43,21.102 -9.2656,-46.094 35.008,-33.33 -49.346,-5.9316 z"
           transform="matrix(0.26458,0,0,0.26458,6.445,101.62)" />
        <g
           id="g2638">
          <ellipse
             id="ellipse2630"
             style="paint-order:fill markers stroke"
             ry="1.0488"
             rx="1.1744"
             cy="227.41"
             cx="32.437" />
          <ellipse
             id="ellipse2632"
             style="paint-order:fill markers stroke"
             ry="1.0488"
             rx="1.1744"
             cy="239.21001"
             cx="26.863001" />
          <ellipse
             id="ellipse2634"
             style="paint-order:fill markers stroke"
             ry="1.0488"
             rx="1.1744"
             cy="241.25999"
             cx="13.563" />
          <ellipse
             id="ellipse2636"
             style="paint-order:fill markers stroke"
             ry="1.0488"
             rx="1.1744"
             cy="261.45001"
             cx="44.291" />
        </g>
      </g>
      <path
         id="path2642"
         style="paint-order:stroke fill markers"
         stroke-width="0.637"
         stroke="#ffffff"
         fill="none"
         d="m 23.419,249.88 -9.5842,-8.5074 12.99,-1.9996 5.6175,-11.225 3.2808,15.12 -8.8983,-3.895 z" />
    </g>
    <g
       id="g3322">
      <path
         style="fill:#765fff"
         id="path2600"
         d="m 27.449,176.23 3.2809,15.121 -8.8982,-3.8948 -3.4055,10.507 -1.9978,12.269 11.541,-5.9676 11.755,5.5831 -2.4515,-12.196 9.2625,-8.8186 -13.056,-1.5694 z" />
      <ellipse
         cx="9.0843334"
         cy="189.4321"
         rx="1.8745475"
         ry="1.8510524"
         style="fill:#765fff;stroke-width:1.67843;paint-order:fill markers stroke"
         id="ellipse2606" />
      <path
         d="m 18.427,197.96 -9.5842,-8.5074 12.99,-1.9996 5.6175,-11.225 3.2808,15.12 -8.8983,-3.895 z"
         fill="none"
         stroke="#765fff"
         style="paint-order:stroke fill markers"
         id="path2614" />
      <ellipse
         id="ellipse2606-1"
         style="fill:#765fff;stroke-width:1.67843;paint-order:fill markers stroke"
         ry="1.8510524"
         rx="1.8745475"
         cy="209.3407"
         cx="39.253014" />
      <ellipse
         id="ellipse2606-9"
         style="fill:#765fff;stroke-width:1.67843;paint-order:fill markers stroke"
         ry="1.8510524"
         rx="1.8745475"
         cy="176.40787"
         cx="27.212578" />
      <ellipse
         id="ellipse2606-0"
         style="fill:#765fff;stroke-width:1.67843;paint-order:fill markers stroke"
         ry="1.8510524"
         rx="1.8745475"
         cy="187.28606"
         cx="21.632633" />
    </g>
    <path
       style="fill:#ffffff;fill-opacity:1"
       id="path2600-8"
       d="m -77.36741,178.70586 3.2809,15.121 -8.8982,-3.8948 -3.4055,10.507 -1.9978,12.269 11.541,-5.9676 11.755,5.5831 -2.4515,-12.196 9.2625,-8.8186 -13.056,-1.5694 z" />
    <ellipse
       cx="-95.732079"
       cy="191.90796"
       rx="1.8745475"
       ry="1.8510524"
       style="fill:#ffffff;stroke-width:1.67843;paint-order:fill markers stroke;fill-opacity:1"
       id="ellipse2606-91" />
    <path
       d="m -86.38941,200.43586 -9.5842,-8.5074 12.99,-1.9996 5.6175,-11.225 3.2808,15.12 -8.8983,-3.895 z"
       fill="none"
       stroke="#765fff"
       style="paint-order:stroke fill markers;stroke:#ffffff;stroke-opacity:1"
       id="path2614-5" />
    <ellipse
       id="ellipse2606-1-5"
       style="fill:#ffffff;stroke-width:1.67843;paint-order:fill markers stroke;fill-opacity:1"
       ry="1.8510524"
       rx="1.8745475"
       cy="211.81656"
       cx="-65.563393" />
    <ellipse
       id="ellipse2606-9-4"
       style="fill:#ffffff;stroke-width:1.67843;paint-order:fill markers stroke;fill-opacity:1"
       ry="1.8510524"
       rx="1.8745475"
       cy="178.88373"
       cx="-77.603828" />
    <ellipse
       id="ellipse2606-0-4"
       style="fill:#ffffff;stroke-width:1.67843;paint-order:fill markers stroke;fill-opacity:1"
       ry="1.8510524"
       rx="1.8745475"
       cy="189.76192"
       cx="-83.183777" />
  </g>
  <g
     id="g2650"
     display="none"
     transform="translate(97.606624,-177.03267)">
    <rect
       id="rect2648"
       style="paint-order:fill markers stroke"
       fill="#ff8080"
       height="82.518997"
       width="80.946999"
       y="21.743999"
       x="31.712" />
  </g>
  <g
     id="g2654"
     transform="translate(97.606624,-177.03267)">
    <path
       id="path2652"
       stroke-width="0.26458"
       fill="#ffffff"
       d="m 83.828,79.57 -13.424,-6.7604 -13.179,7.2259 2.2812,-14.856 -10.945,-10.301 14.834,-2.4212 6.415,-13.593 6.8867,13.36 14.91,1.9008 -10.578,10.678 z"
       transform="matrix(0.85193,0,0,0.82483,-25.295,-25.434)" />
  </g>
  <g
     id="g2710"
     transform="translate(97.606624,-177.03267)">
    <path
       id="path2656"
       style="paint-order:stroke fill markers"
       stroke-width="1.0219"
       stroke="#ffffff"
       fill="#5245e5"
       d="M 25.4,28.328 16.0757,19.8311 28.7127,17.834 34.1779,6.622 37.3697,21.724 28.7128,17.8338 Z" />
    <g
       id="g2670"
       fill="#ffffff">
      <g
         id="g2666">
        <ellipse
           id="ellipse2658"
           style="paint-order:fill markers stroke"
           ry="1.0476"
           rx="1.1425"
           cy="5.8899002"
           cx="34.174" />
        <ellipse
           id="ellipse2660"
           style="paint-order:fill markers stroke"
           ry="1.0476"
           rx="1.1425"
           cy="17.671"
           cx="28.750999" />
        <ellipse
           id="ellipse2662"
           style="paint-order:fill markers stroke"
           ry="1.0476"
           rx="1.1425"
           cy="19.719"
           cx="15.812" />
        <ellipse
           id="ellipse2664"
           style="paint-order:fill markers stroke"
           ry="1.0476"
           rx="1.1425"
           cy="39.883999"
           cx="45.706001" />
      </g>
      <path
         id="path2668"
         stroke-width="0.26458"
         d="m 83.828,79.57 -13.424,-6.7604 -13.179,7.2259 2.2812,-14.856 -10.945,-10.301 14.834,-2.4212 6.415,-13.593 6.8867,13.36 14.91,1.9008 -10.578,10.678 z"
         transform="matrix(0.87568,0,0,0.82585,-30.288,225.12)" />
    </g>
    <path
       id="path2672"
       style="paint-order:stroke fill markers"
       stroke-width="1.0366"
       stroke="#ffffff"
       fill="#8200ff"
       d="m 21.821,278.95 -9.5842,-8.5074 12.99,-1.9996 5.6175,-11.225 3.2808,15.12 -8.8983,-3.895 z" />
    <g
       id="g2682"
       fill="#ffffff">
      <ellipse
         id="ellipse2674"
         style="paint-order:fill markers stroke"
         ry="1.0488"
         rx="1.1744"
         cy="256.48001"
         cx="30.839001" />
      <ellipse
         id="ellipse2676"
         style="paint-order:fill markers stroke"
         ry="1.0488"
         rx="1.1744"
         cy="268.28"
         cx="25.264999" />
      <ellipse
         id="ellipse2678"
         style="paint-order:fill markers stroke"
         ry="1.0488"
         rx="1.1744"
         cy="270.32999"
         cx="11.965" />
      <ellipse
         id="ellipse2680"
         style="paint-order:fill markers stroke"
         ry="1.0488"
         rx="1.1744"
         cy="290.51999"
         cx="42.693001" />
    </g>
    <text
       id="text2686"
       xml:space="preserve"
       style="line-height:1.25"
       word-spacing="0px"
       stroke-width="0.92277"
       letter-spacing="0px"
       font-size="36.911px"
       font-family="'Open Sans Condensed'"
       fill="#8200ff"
       y="319.68256"
       x="50.92828"
       transform="scale(1.0883,0.91885)"><tspan
         id="tspan2684"
         stroke-width="0.92277"
         font-weight="bold"
         fill="#8200ff"
         y="319.68256"
         x="50.92828">Datatähti</tspan></text>
    <rect
       id="rect2688"
       stroke-width="0.040221"
       fill="#b57fe9"
       ry="1.4581"
       height="12.116"
       width="12.74"
       y="91.113998"
       x="10.33" />
    <g
       id="g2704"
       transform="matrix(0.29483,0,0,0.28342,7.2046,27.724)">
      <path
         id="path2690"
         stroke-width="0.26458"
         fill="#ffffff"
         d="m 83.828,79.57 -13.424,-6.7604 -13.179,7.2259 2.2812,-14.856 -10.945,-10.301 14.834,-2.4212 6.415,-13.593 6.8867,13.36 14.91,1.9008 -10.578,10.678 z"
         transform="matrix(0.87568,0,0,0.82585,-28.689,196.05)" />
      <path
         id="path2692"
         style="paint-order:stroke fill markers"
         stroke-width="1.0366"
         stroke="#ffffff"
         fill="#b57fe9"
         d="m 23.419,249.88 -9.5842,-8.5074 12.99,-1.9996 5.6175,-11.225 3.2808,15.12 -8.8983,-3.895 z" />
      <g
         id="g2702"
         fill="#ffffff">
        <ellipse
           id="ellipse2694"
           style="paint-order:fill markers stroke"
           ry="1.0488"
           rx="1.1744"
           cy="227.41"
           cx="32.437" />
        <ellipse
           id="ellipse2696"
           style="paint-order:fill markers stroke"
           ry="1.0488"
           rx="1.1744"
           cy="239.21001"
           cx="26.863001" />
        <ellipse
           id="ellipse2698"
           style="paint-order:fill markers stroke"
           ry="1.0488"
           rx="1.1744"
           cy="241.25999"
           cx="13.563" />
        <ellipse
           id="ellipse2700"
           style="paint-order:fill markers stroke"
           ry="1.0488"
           rx="1.1744"
           cy="261.45001"
           cx="44.291" />
      </g>
    </g>
    <text
       id="text2708"
       xml:space="preserve"
       style="line-height:1.25"
       word-spacing="0px"
       stroke-width="0.26674"
       letter-spacing="0px"
       font-size="10.67px"
       font-family="'Open Sans Condensed'"
       fill="#b57fe9"
       y="114.03973"
       x="21.636921"
       transform="scale(1.11,0.90089)"><tspan
         id="tspan2706"
         stroke-width="0.26674"
         font-weight="bold"
         fill="#b57fe9"
         y="114.03973"
         x="21.636921">Datatähti</tspan></text>
  </g>
</svg>
